<?xml version="1.0" ?><!DOCTYPE svg  PUBLIC '-//W3C//DTD SVG 1.1//EN'  'http://www.w3.org/Graphics/SVG/1.1/DTD/svg11.dtd'><svg height="0.990276in" style="shape-rendering:geometricPrecision; text-rendering:geometricPrecision; image-rendering:optimizeQuality; fill-rule:evenodd; clip-rule:evenodd" version="1.1" viewBox="0 0 130 130" width="0.991323in" xml:space="preserve" xmlns="http://www.w3.org/2000/svg" xmlns:xlink="http://www.w3.org/1999/xlink"><defs><style type="text/css">
   <![CDATA[
    .str0 {stroke:black;stroke-width:0.911658}
    .fil0 {fill:black}
   ]]>
  </style></defs><g id="Layer_x0020_1"><g id="_298675192"><g><path class="fil0" d="M68 31c19,3 28,12 30,30 0,1 0,1 0,1 0,2 0,4 2,4 2,0 2,-2 2,-3 0,-1 0,-1 0,-1 0,-18 -15,-34 -33,-35 -2,0 -4,-1 -5,2 0,2 3,2 4,2z"/><path class="fil0" d="M72 36c-2,0 -4,-1 -5,2 0,2 2,2 4,2 12,3 16,7 18,18 0,1 0,2 0,2 0,1 0,3 2,2 1,0 2,-1 2,-1 0,-1 0,-2 0,-3 0,-10 -10,-20 -21,-22z"/><path class="fil0" d="M73 45c-1,0 -2,0 -3,2 -1,2 1,2 2,2 5,1 8,4 8,8 0,1 0,2 1,2 0,0 1,1 1,1 1,0 1,-1 1,-1 1,0 1,-1 1,-3 0,-5 -6,-11 -11,-11z"/><path class="fil0" d="M97 82c-2,-2 -5,-4 -7,-5 -5,-4 -10,-4 -13,1 -2,4 -5,4 -8,2 -9,-3 -15,-9 -19,-17 -1,-2 -1,-3 -1,-4 0,-2 1,-4 3,-6 2,-1 4,-3 4,-6 0,-4 -10,-17 -13,-18 -2,-1 -4,-1 -5,0 -9,3 -13,10 -9,18 2,5 4,10 6,14 11,18 28,32 49,41 1,0 3,1 4,1 6,0 12,-6 14,-11 2,-5 -2,-8 -5,-10z"/></g><path class="fil0 str0" d="M130 65c-1,36 -29,65 -65,65 -36,0 -65,-29 -65,-65 0,-36 29,-65 65,-65l65 0 0 65 0 0zm-65 -58c32,0 58,26 58,58l0 0c0,32 -26,58 -58,58 -32,0 -58,-26 -58,-58 0,-32 26,-58 58,-58z"/></g></g></svg>